# xmcd
#
# Track frame offsets:
#	150
#	13801
#	21714
#	38214
#	52771
#	66354
#	82889
#	104330
#
# Disc length: 1589 seconds
# Revision: 0
# Processed by: cddbd v1.5.2PL0 Copyright (c) Steve Scherf et al.
# Submitted via: dBpowerAMP V12.0
#
DISCID=63063308
DTITLE=Glenna Bell - Perfectly Legal: Songs of Sex, Love and Murder
DYEAR=2010
DGENRE=Country
TTITLE0=Frankie and Johnny
TTITLE1=Lost and Lookin'
TTITLE2=These Days
TTITLE3=Honky Tonk Man
TTITLE4=Big Kev
TTITLE5=Hurricane
TTITLE6=The Southern Gothic Wedding Waltz
TTITLE7=The Cougar Anthem
EXTD=
EXTT0=
EXTT1=
EXTT2=
EXTT3=
EXTT4=
EXTT5=
EXTT6=
EXTT7=
PLAYORDER=
